<svg width="165" height="27" viewBox="0 0 165 27" fill="none" xmlns="http://www.w3.org/2000/svg">
<g clip-path="url(#clip0_2065_14)">
<path d="M40.1641 22H36.625V4.9375H40.1641V22ZM45.3789 7.80859H31.4805V4.9375H45.3789V7.80859Z" fill="black"/>
<path d="M53.7344 4.9375C55.0469 4.9375 56.1719 5.13672 57.1094 5.53516C58.0547 5.92578 58.7812 6.50391 59.2891 7.26953C59.7969 8.02734 60.0508 8.96875 60.0508 10.0938C60.0508 11.0156 59.8945 11.8047 59.582 12.4609C59.2773 13.1094 58.8438 13.6523 58.2812 14.0898C57.7266 14.5195 57.0703 14.8672 56.3125 15.1328L55.1875 15.7539H49.7383V12.8945H53.7344C54.3438 12.8945 54.8516 12.7891 55.2578 12.5781C55.6719 12.3672 55.9805 12.0742 56.1836 11.6992C56.3945 11.3164 56.5 10.8711 56.5 10.3633C56.5 9.57422 56.2734 8.95312 55.8203 8.5C55.3672 8.03906 54.6719 7.80859 53.7344 7.80859H50.9336V22H47.3828V4.9375H53.7344ZM53.0078 14.3828H56.7578L60.6836 21.8359V22H56.8867L53.0078 14.3828Z" fill="black"/>
<path d="M65.1367 22H61.3633L67.7266 4.9375H70.0938L69.7891 8.00781L65.1367 22ZM68.9453 8.00781L68.6055 4.9375H70.9961L77.3828 22H73.6211L68.9453 8.00781ZM73.4805 18.4961H64.3867V15.6367H73.4805V18.4961Z" fill="black"/>
<path d="M87.6953 4.9375H91.6328L85.6914 22H83.0898L83.6523 18.332L87.6953 4.9375ZM84.0156 18.332L84.625 22H82L76.082 4.9375H80.0195L84.0156 18.332Z" fill="black"/>
<path d="M104.676 22H95.6641V19.1406H104.676V22ZM96.7773 22H93.2148V4.9375H96.7773V22ZM103.492 14.6172H95.6641V11.8398H103.492V14.6172ZM104.641 7.80859H95.6641V4.9375H104.641V7.80859Z" fill="black"/>
<path d="M117.719 22H109.164V19.1406H117.719V22ZM110.266 22H106.715V4.9375H110.266V22Z" fill="black"/>
<path d="M122.09 15.9883V13.1289H126.402C127.074 13.1289 127.617 13.0195 128.031 12.8008C128.445 12.582 128.75 12.2852 128.945 11.9102C129.141 11.5273 129.238 11.0898 129.238 10.5977C129.238 10.1133 129.141 9.66016 128.945 9.23828C128.75 8.80859 128.445 8.46484 128.031 8.20703C127.617 7.94141 127.074 7.80859 126.402 7.80859H123.285V22H119.723V4.9375H126.402C127.746 4.9375 128.898 5.18359 129.859 5.67578C130.82 6.16016 131.555 6.82812 132.062 7.67969C132.57 8.52344 132.824 9.48828 132.824 10.5742C132.824 11.6758 132.57 12.6328 132.062 13.4453C131.555 14.2578 130.82 14.8867 129.859 15.332C128.898 15.7695 127.746 15.9883 126.402 15.9883H122.09Z" fill="black"/>
<path d="M141.578 4.9375C142.891 4.9375 144.016 5.13672 144.953 5.53516C145.898 5.92578 146.625 6.50391 147.133 7.26953C147.641 8.02734 147.895 8.96875 147.895 10.0938C147.895 11.0156 147.738 11.8047 147.426 12.4609C147.121 13.1094 146.688 13.6523 146.125 14.0898C145.57 14.5195 144.914 14.8672 144.156 15.1328L143.031 15.7539H137.582V12.8945H141.578C142.188 12.8945 142.695 12.7891 143.102 12.5781C143.516 12.3672 143.824 12.0742 144.027 11.6992C144.238 11.3164 144.344 10.8711 144.344 10.3633C144.344 9.57422 144.117 8.95312 143.664 8.5C143.211 8.03906 142.516 7.80859 141.578 7.80859H138.777V22H135.227V4.9375H141.578ZM140.852 14.3828H144.602L148.527 21.8359V22H144.73L140.852 14.3828Z" fill="black"/>
<path d="M164.582 13.8438C164.582 15.5859 164.277 17.082 163.668 18.332C163.059 19.582 162.207 20.5469 161.113 21.2266C160.027 21.8984 158.766 22.2344 157.328 22.2344C155.906 22.2344 154.645 21.8984 153.543 21.2266C152.449 20.5469 151.59 19.582 150.965 18.332C150.348 17.082 150.039 15.5859 150.039 13.8438V13.1055C150.039 11.3633 150.348 9.8672 150.965 8.6172C151.582 7.35939 152.438 6.39453 153.531 5.72266C154.625 5.04297 155.883 4.70312 157.305 4.70312C158.742 4.70312 160.008 5.04297 161.102 5.72266C162.195 6.39453 163.047 7.35939 163.656 8.6172C164.273 9.8672 164.582 11.3633 164.582 13.1055V13.8438ZM161.008 13.082C161.008 11.8945 160.863 10.8945 160.574 10.082C160.285 9.26953 159.863 8.65626 159.309 8.2422C158.754 7.82813 158.086 7.62109 157.305 7.62109C156.523 7.62109 155.859 7.82813 155.312 8.2422C154.766 8.65626 154.348 9.26953 154.059 10.082C153.77 10.8945 153.625 11.8945 153.625 13.082V13.8438C153.625 15.0234 153.77 16.0234 154.059 16.8438C154.355 17.6562 154.777 18.2734 155.324 18.6953C155.879 19.1172 156.547 19.3281 157.328 19.3281C158.117 19.3281 158.785 19.1172 159.332 18.6953C159.879 18.2734 160.293 17.6562 160.574 16.8438C160.863 16.0234 161.008 15.0234 161.008 13.8438V13.082Z" fill="black"/>
<path d="M13.3333 0C5.98133 0 0 5.98133 0 13.3333C0 20.6853 5.98133 26.6667 13.3333 26.6667C20.6853 26.6667 26.6667 20.6853 26.6667 13.3333C26.6667 5.98133 20.6853 0 13.3333 0ZM2.66667 13.3333C2.66667 12.1347 2.87467 10.984 3.24133 9.908L8 14.6667V17.3333L12 21.3333V23.908C6.748 23.248 2.66667 18.7627 2.66667 13.3333ZM21.7733 19.8307C20.9027 19.1293 19.5827 18.6667 18.6667 18.6667V17.3333C18.6667 16.6261 18.3857 15.9478 17.8856 15.4477C17.3855 14.9476 16.7072 14.6667 16 14.6667H10.6667V10.6667C11.3739 10.6667 12.0522 10.3857 12.5523 9.88562C13.0524 9.38552 13.3333 8.70724 13.3333 8V6.66667H14.6667C15.3739 6.66667 16.0522 6.38572 16.5523 5.88562C17.0524 5.38552 17.3333 4.70724 17.3333 4V3.452C21.2373 5.03733 24 8.86667 24 13.3333C23.9995 15.6862 23.2161 17.972 21.7733 19.8307Z" fill="black"/>
</g>
<defs>
<clipPath id="clip0_2065_14">
<rect width="165" height="27" fill="white"/>
</clipPath>
</defs>
</svg>
